MimicMSK_OpenSim_coordinates_FK_5s
version=1
nRows=6
nColumns=129
inDegrees=yes

# SIMM Motion File Header:
name MimicMSK_OpenSim_coordinates_FK_5s
datacolumns 129
datarows 6
otherdata 1
range 2.13605000 2.43645000
endheader
time	root_rx	root_ry	root_rz	root_tx	root_ty	root_tz	flex_extension	lat_bending	axial_rotation	Abs_r3	Abs_t1	Abs_t2	L4_L5_FE	L4_L5_LB	L4_L5_AR	L3_L4_FE	L3_L4_LB	L3_L4_AR	L2_L3_FE	L2_L3_LB	L2_L3_AR	L1_L2_FE	L1_L2_LB	L1_L2_AR	sternoclavicular_r2_r	sternoclavicular_r3_r	unrotscap_r3_r	unrotscap_r2_r	acromioclavicular_r2_r	acromioclavicular_r3_r	acromioclavicular_r1_r	unrothum_r1_r	unrothum_r3_r	unrothum_r2_r	elv_angle_r	shoulder_elv_r	shoulder1_r2_r	shoulder_rot_r	elbow_flex_r	pro_sup_r	deviation_r	flexion_r	cmc_flexion_r	cmc_abduction_r	mp_flexion_r	ip_flexion_r	mcp2_flexion_r	mcp2_abduction_r	pm2_flexion_r	md2_flexion_r	mcp3_flexion_r	mcp3_abduction_r	pm3_flexion_r	md3_flexion_r	mcp4_flexion_r	mcp4_abduction_r	pm4_flexion_r	md4_flexion_r	mcp5_flexion_r	mcp5_abduction_r	pm5_flexion_r	md5_flexion_r	sternoclavicular_r2_l	sternoclavicular_r3_l	unrotscap_r3_l	unrotscap_r2_l	acromioclavicular_r2_l	acromioclavicular_r3_l	acromioclavicular_r1_l	unrothum_r1_l	unrothum_r3_l	unrothum_r2_l	elv_angle_l	shoulder_elv_l	shoulder1_r2_l	shoulder_rot_l	elbow_flex_l	pro_sup_l	deviation_l	flexion_l	cmc_flexion_l	cmc_abduction_l	mp_flexion_l	ip_flexion_l	mcp2_flexion_l	mcp2_abduction_l	pm2_flexion_l	md2_flexion_l	mcp3_flexion_l	mcp3_abduction_l	pm3_flexion_l	md3_flexion_l	mcp4_flexion_l	mcp4_abduction_l	pm4_flexion_l	md4_flexion_l	mcp5_flexion_l	mcp5_abduction_l	pm5_flexion_l	md5_flexion_l	hip_flexion_r	hip_adduction_r	hip_rotation_r	knee_angle_r	knee_angle_rotation2_r	knee_angle_rotation3_r	knee_angle_translation2_r	knee_angle_translation1_r	ankle_angle_r	subtalar_angle_r	mtp_angle_r	knee_angle_beta_rotation1_r	knee_angle_beta_translation2_r	knee_angle_beta_translation1_r	hip_flexion_l	hip_adduction_l	hip_rotation_l	knee_angle_l	knee_angle_rotation2_l	knee_angle_rotation3_l	knee_angle_translation2_l	knee_angle_translation1_l	ankle_angle_l	subtalar_angle_l	mtp_angle_l	knee_angle_beta_rotation1_l	knee_angle_beta_translation2_l	knee_angle_beta_translation1_l
2.13605000	-89.79854193	0.00918525	0.03190705	0.00002615	0.82488556	-0.00040849	0.10526742	0.00483104	-0.02792805	0.06767642	0.00000000	0.00000000	0.01947447	0.00087490	-0.00105512	0.02147455	0.00118505	-0.00105512	0.02431677	0.00120824	-0.00086884	0.02684319	0.00090824	-0.00080684	-0.00323079	0.00136841	-0.00136841	0.00323079	-0.00065417	0.00528674	0.00237636	-0.00237636	-0.00528674	0.00065417	-0.00004451	0.01335035	0.00004451	1.07219488	-0.31800588	-1.04954070	0.67171033	-0.08591356	28.52282046	-4.26563237	-104.38598049	48.28316716	0.92979397	-0.33193380	-0.21033633	-0.13347555	0.61674359	-0.27688406	0.78769878	-0.99415425	0.19154148	-0.29248069	-0.13392467	-0.15525157	1.18394261	-0.51782889	-1.46680251	-0.19739047	-0.00227147	0.00096209	-0.00096209	0.00227147	-0.00045993	0.00371695	0.00167075	-0.00167075	-0.00371695	0.00045993	0.00039121	0.00938623	-0.00039121	0.93592539	-0.22473362	-0.85298262	0.14588386	-1.66638429	-7.94403150	1.65023754	20.57189991	-148.47030553	3.80744110	0.33204199	-0.05256762	0.47288342	2.86376364	-0.00847101	3.08040148	-2.31723384	1.64363494	-1.12676865	3.47365501	-1.71962570	1.95268956	-1.37316997	0.18683320	0.12961679	0.51241165	0.01153475	-0.16672624	0.26439628	0.02087268	0.09748815	0.00002711	0.00001448	-11.95853707	-3.23627669	19.37863049	0.60689414	-0.01105302	0.05234917	0.57120271	-0.02424985	0.02652991	0.41396003	0.03264461	-0.15245210	-0.00004242	0.00002258	-11.76307235	-3.14924589	19.56893533	0.60827782	-0.01118008	0.05230892
2.19613000	-89.79163587	0.00949018	0.03322707	0.00002745	0.82488255	-0.00042274	0.10886959	0.00498933	-0.02908642	0.06999226	0.00000000	0.00000000	0.02014087	0.00090357	-0.00109889	0.02220940	0.00122388	-0.00109889	0.02514887	0.00124783	-0.00090488	0.02776174	0.00093799	-0.00084031	-0.00335763	0.00142214	-0.00142214	0.00335763	-0.00067985	0.00549430	0.00246966	-0.00246966	-0.00549430	0.00067985	-0.00004420	0.01387450	0.00004420	1.11151802	-0.32882625	-1.08922197	0.69731831	-0.09056244	28.63275725	-4.74348597	-106.12034667	48.29184111	0.96408315	-0.34705494	-0.21808975	-0.13833666	0.63956901	-0.29062458	0.81466740	-1.02903931	0.19744105	-0.30737849	-0.13655434	-0.16075640	1.22567936	-0.53949347	-1.51870087	-0.20436214	-0.00235934	0.00099931	-0.00099931	0.00235934	-0.00047772	0.00386074	0.00173538	-0.00173538	-0.00386074	0.00047772	0.00040381	0.00974934	-0.00040381	0.97068419	-0.23318412	-0.88414541	0.15133789	-1.72581259	-8.17662926	1.71456665	20.41297569	-152.90098258	3.94056544	0.34328358	-0.05430791	0.48904218	2.96477367	-0.00956286	3.18955650	-2.39981970	1.69911891	-1.16978334	3.61476009	-1.78827820	2.02126767	-1.42106533	0.19178166	0.13386793	0.52882028	0.01209972	-0.17350377	0.26162856	0.02065460	0.09646978	0.00002682	0.00001433	-12.54607729	-3.38946375	19.19536839	0.60685893	-0.01105067	0.05234991	0.59019132	-0.02452737	0.02470328	0.41798645	0.03296116	-0.15392997	-0.00004283	0.00002280	-12.34067015	-3.30174214	19.42217594	0.60830101	-0.01118350	0.05230783
2.25621000	-89.78465799	0.00979707	0.03456519	0.00002877	0.82487944	-0.00043712	0.11250958	0.00514858	-0.03026081	0.07233241	0.00000000	0.00000000	0.02081427	0.00093241	-0.00114325	0.02295195	0.00126295	-0.00114325	0.02598971	0.00128766	-0.00094141	0.02868994	0.00096793	-0.00087423	-0.00348657	0.00147675	-0.00147675	0.00348657	-0.00070596	0.00570530	0.00256450	-0.00256450	-0.00570530	0.00070596	-0.00004384	0.01440732	0.00004384	1.15129946	-0.33976797	-1.12941288	0.72315814	-0.09534033	28.71434937	-5.22735774	-107.82887335	48.26469232	0.99875900	-0.36233586	-0.22592330	-0.14324898	0.66269427	-0.30454462	0.84180608	-1.06420176	0.20344793	-0.32250587	-0.13913170	-0.16631905	1.26783441	-0.56141378	-1.57102525	-0.21139048	-0.00244892	0.00103725	-0.00103725	0.00244892	-0.00049586	0.00400733	0.00180127	-0.00180127	-0.00400733	0.00049586	0.00041643	0.01011951	-0.00041643	1.00586682	-0.24178509	-0.91570935	0.15705740	-1.78580932	-8.40726516	1.77997756	20.19899770	-157.32065971	4.07486054	0.35445090	-0.05603864	0.50535510	3.06666468	-0.01086246	3.29982360	-2.48324973	1.75488650	-1.21350578	3.75824390	-1.85807456	2.09035419	-1.46950175	0.19671087	0.13813066	0.54534551	0.01266906	-0.18043667	0.25841991	0.02040175	0.09528912	0.00002649	0.00001416	-13.14293526	-3.54437652	18.85580033	0.60681768	-0.01104794	0.05235077	0.60933823	-0.02479282	0.02269861	0.42168985	0.03325230	-0.15528919	-0.00004321	0.00002300	-12.92742099	-3.45603388	19.12349871	0.60832169	-0.01118664	0.05230682
2.31629000	-89.77760643	0.01010601	0.03592106	0.00003011	0.82487621	-0.00045164	0.11618843	0.00530884	-0.03145092	0.07469754	0.00000000	0.00000000	0.02149486	0.00096143	-0.00118822	0.02370244	0.00130226	-0.00118822	0.02683953	0.00132774	-0.00097844	0.02962805	0.00099806	-0.00090862	-0.00361763	0.00153226	-0.00153226	0.00361763	-0.00073249	0.00591975	0.00266090	-0.00266090	-0.00591975	0.00073249	-0.00004341	0.01494887	0.00004341	1.19153880	-0.35083256	-1.17011248	0.74922393	-0.10024375	28.76761356	-5.71602230	-109.51227671	48.20022109	1.03381709	-0.37776866	-0.23383616	-0.14821226	0.68611728	-0.31863584	0.86911298	-1.09963947	0.20956317	-0.33785424	-0.14165729	-0.17193975	1.31040657	-0.58358170	-1.62377233	-0.21847502	-0.00254031	0.00107596	-0.00107596	0.00254031	-0.00051436	0.00415688	0.00186850	-0.00186850	-0.00415688	0.00051436	0.00042905	0.01049717	-0.00042905	1.04147567	-0.25055245	-0.94768379	0.16312585	-1.84635910	-8.63057715	1.84814475	19.92255632	-161.67703736	4.21030719	0.36547437	-0.05775742	0.52182259	3.16940632	-0.01243599	3.41120512	-2.56752494	1.81089070	-1.25799253	3.90411573	-1.92902217	2.15989714	-1.51852836	0.20162291	0.14240273	0.56199254	0.01324184	-0.18753070	0.25479088	0.02011577	0.09395370	0.00002612	0.00001396	-13.74874330	-3.70086251	18.34843262	0.60677045	-0.01104486	0.05235174	0.62864798	-0.02504789	0.02051304	0.42508881	0.03351950	-0.15653660	-0.00004355	0.00002318	-13.52296312	-3.61196251	18.66164893	0.60834012	-0.01118953	0.05230590
2.37637000	-89.77047941	0.01041706	0.03729430	0.00003148	0.82487284	-0.00046630	0.11990716	0.00547015	-0.03265642	0.07708831	0.00000000	0.00000000	0.02218282	0.00099064	-0.00123376	0.02446106	0.00134183	-0.00123376	0.02769855	0.00136809	-0.00101594	0.03057633	0.00102839	-0.00094344	-0.00375080	0.00158866	-0.00158866	0.00375080	-0.00075946	0.00613767	0.00275885	-0.00275885	-0.00613767	0.00075946	-0.00004289	0.01549916	0.00004289	1.23223567	-0.36202153	-1.21131958	0.77550993	-0.10526874	28.79257752	-6.20826705	-111.17120570	48.09675995	1.06925239	-0.39334557	-0.24182747	-0.15322620	0.70983536	-0.33288986	0.89658631	-1.13535031	0.21578730	-0.35341486	-0.14413160	-0.17761868	1.35339422	-0.60598888	-1.67693887	-0.22561521	-0.00263360	0.00111547	-0.00111547	0.00263360	-0.00053325	0.00430953	0.00193711	-0.00193711	-0.00430953	0.00053325	0.00044164	0.01088266	-0.00044164	1.07751312	-0.25950042	-0.98007586	0.16961705	-1.90744800	-8.84086522	1.92090553	19.57752270	-165.91634007	4.34688758	0.37629270	-0.05946194	0.53844515	3.27297118	-0.01434149	3.52370339	-2.65264631	1.86708939	-1.30329312	4.05238490	-2.00112859	2.22985033	-1.56818807	0.20651957	0.14668251	0.57876651	0.01381714	-0.19479123	0.25076235	0.01979829	0.09247118	0.00002571	0.00001374	-14.36313673	-3.85877314	17.66206036	0.60671733	-0.01104143	0.05235282	0.64812498	-0.02529424	0.01814414	0.42820211	0.03376422	-0.15767911	-0.00004387	0.00002335	-14.12693839	-3.76937362	18.02560538	0.60835654	-0.01119217	0.05230506
2.43645000	-89.76327528	0.01073026	0.03868454	0.00003287	0.82486933	-0.00048109	0.12366666	0.00563253	-0.03387702	0.07950530	0.00000000	0.00000000	0.02287833	0.00102005	-0.00127987	0.02522800	0.00138166	-0.00127987	0.02856700	0.00140870	-0.00105391	0.03153500	0.00105892	-0.00097871	-0.00388609	0.00164597	-0.00164597	0.00388609	-0.00078685	0.00635905	0.00285836	-0.00285836	-0.00635905	0.00078685	-0.00004227	0.01605821	0.00004227	1.27338974	-0.37333640	-1.25303261	0.80200956	-0.11041114	28.78932064	-6.70287254	-112.80624566	47.95239310	1.10505959	-0.40905792	-0.24989631	-0.15829052	0.73384578	-0.34729737	0.92422437	-1.17133216	0.22212100	-0.36917806	-0.14655509	-0.18335609	1.39679608	-0.62862611	-1.73052170	-0.23281040	-0.00272882	0.00115580	-0.00115580	0.00272882	-0.00055253	0.00446534	0.00200715	-0.00200715	-0.00446534	0.00055253	0.00045419	0.01127612	-0.00045419	1.11398055	-0.26863732	-1.01288820	0.17657249	-1.96906716	-9.03387296	1.99966918	19.16252114	-169.99822839	4.48458934	0.38687204	-0.06115001	0.55522332	3.37734197	-0.01661094	3.63732064	-2.73861493	1.92345691	-1.34943430	4.20306050	-2.07440181	2.30018681	-1.61850390	0.21140196	0.15096946	0.59567240	0.01439406	-0.20222326	0.24635554	0.01945097	0.09084934	0.00002526	0.00001351	-14.98575324	-4.01796316	16.78585049	0.60665837	-0.01103769	0.05235399	0.66777343	-0.02553343	0.01558990	0.43104870	0.03398797	-0.15872371	-0.00004416	0.00002350	-14.73899172	-3.92811651	17.20469954	0.60837117	-0.01119459	0.05230429
